HIERARCHY
ROOT Hips
{
  OFFSET 233.108 94.2698 -254.549
  CHANNELS 6 Xposition Yposition Zposition Zrotation Xrotation Yrotation
  JOINT ToSpine
  {
    OFFSET -2.69724 7.43032 -0.144315
    CHANNELS 3 Zrotation Xrotation Yrotation
    JOINT Spine
    {
      OFFSET -0.0310711 10.7595 1.96963
      CHANNELS 3 Zrotation Xrotation Yrotation
      JOINT Spine1
      {
        OFFSET 19.9056 3.91189 0.764692
        CHANNELS 3 Zrotation Xrotation Yrotation
        JOINT Neck
        {
          OFFSET 25.9749 7.03908 -0.130764
          CHANNELS 3 Zrotation Xrotation Yrotation
          JOINT Head
          {
            OFFSET 9.52751 0.295786 -0.907742
            CHANNELS 3 Zrotation Xrotation Yrotation
            End Site
            {
              OFFSET 16.4037 0.713936 2.7358
            }
          }
        }
        JOINT LeftShoulder
        {
          OFFSET 17.7449 4.33886 11.7777
          CHANNELS 3 Zrotation Xrotation Yrotation
          JOINT LeftArm
          {
            OFFSET 0.911315 1.27913 9.80584
            CHANNELS 3 Zrotation Xrotation Yrotation
            JOINT LeftForeArm
            {
              OFFSET 28.6126 1.18197 -3.53199
              CHANNELS 3 Zrotation Xrotation Yrotation
              JOINT LeftHand
              {
                OFFSET 27.5088 0.0218783 0.327423
                CHANNELS 3 Zrotation Xrotation Yrotation
                End Site
                {
                  OFFSET 18.6038 -0.000155887 0.382096
                }
              }
            }
          }
        }
        JOINT RightShoulder
        {
          OFFSET 17.1009 2.89543 -12.2328
          CHANNELS 3 Zrotation Xrotation Yrotation
          JOINT RightArm
          {
            OFFSET 1.4228 0.178766 -10.211
            CHANNELS 3 Zrotation Xrotation Yrotation
            JOINT RightForeArm
            {
              OFFSET 28.733 1.87905 2.64907
              CHANNELS 3 Zrotation Xrotation Yrotation
              JOINT RightHand
              {
                OFFSET 27.4588 0.290562 -0.101845
                CHANNELS 3 Zrotation Xrotation Yrotation
                End Site
                {
                  OFFSET 17.8396 -0.255518 -0.000602873
                }
              }
            }
          }
        }
      }
    }
  }
  JOINT LeftUpLeg
  {
    OFFSET -5.61296 -2.22332 -10.2353
    CHANNELS 3 Zrotation Xrotation Yrotation
    JOINT LeftLeg
    {
      OFFSET 2.56703 -44.7417 -7.93097
      CHANNELS 3 Zrotation Xrotation Yrotation
      JOINT LeftFoot
      {
        OFFSET 3.16933 -46.5642 -3.96578
        CHANNELS 3 Zrotation Xrotation Yrotation
        JOINT LeftToeBase
        {
          OFFSET 0.346054 -6.02161 12.8035
          CHANNELS 3 Zrotation Xrotation Yrotation
          End Site
          {
            OFFSET 0.134235 -1.35082 5.13018
          }
        }
      }
    }
  }
  JOINT RightUpLeg
  {
    OFFSET -5.7928 -1.72406 10.6446
    CHANNELS 3 Zrotation Xrotation Yrotation
    JOINT RightLeg
    {
      OFFSET -2.57161 -44.7178 -7.85259
      CHANNELS 3 Zrotation Xrotation Yrotation
      JOINT RightFoot
      {
        OFFSET -3.10148 -46.5936 -4.03391
        CHANNELS 3 Zrotation Xrotation Yrotation
        JOINT RightToeBase
        {
          OFFSET -0.0828122 -6.13587 12.8035
          CHANNELS 3 Zrotation Xrotation Yrotation
          End Site
          {
            OFFSET -0.131328 -1.35082 5.13018
          }
        }
      }
    }
  }
}
MOTION
Frames:	8
Frame Time:	0.0333333
238.828 94.9906 -259.653 71.6153 40.7775 10.9506 -70.1915 0 88.8779 134.759 63.8375 -54.4487 8.26893 21.4955 0.6674 -170.316 10.1713 172.592 -153.546 42.7649 139.952 3.20736 -1.89056 -38.6985 -80.025 34.7429 -100.817 7.44685 12.8742 -22.2549 13.699 -0.783139 -4.7131 -0.0834599 2.72542 22.699 -83.7501 -52.2576 92.6273 14.7203 -11.2796 47.5749 -0.854381 -0.221611 16.7052 -29.5451 -2.6853 86.074 -11.6091 71.5669 -4.92574 7.02175 3.91357 -0.914838 -7.80624 -32.3422 10.699 -22.6124 -1.62578 86.4888 157.973 79.3068 -156.151 -7.05788 -1.80016 1.0448 4.84598 2.5542 -14.3914 
233.108 94.2698 -254.549 72.5587 38.008 8.75806 -70.1915 0 88.8779 133.638 65.8739 -51.3558 11.4381 22.9912 -5.31267 -166.458 12.2404 171.159 -155.946 47.5128 151.268 2.57787 -1.79644 -30.2171 -88.246 44.4388 -87.1568 2.66832 20.7417 -15.0961 17.1341 -0.784159 -3.44151 0.0682312 0.90798 25.2097 -81.7565 -51.3526 98.1846 5.98628 -2.03548 64.576 4.73632 0.0830434 1.94015 -27.721 -1.55416 88.2303 -8.2382 66.74 -5.85347 8.29752 7.19149 -1.11033 -8.40661 -35.0089 9.60517 -28.1162 -1.28215 90.7453 164.099 71.9786 -156.847 -5.96023 -2.70345 0.945759 6.91144 -5.32648 -15.5149 
226.904 95.5381 -248.914 72.5642 37.6096 7.79275 -70.1915 0 88.8779 134.524 66.0091 -51.3239 11.327 23.6142 -6.56334 -161.946 15.1387 172.31 -154.377 51.4105 158.751 2.55626 -1.6849 -29.6731 -103.013 43.9045 -70.4001 0.0947303 32.3654 -9.18291 11.4703 -0.645549 -4.61 0.136867 0.349391 25.2507 -80.5597 -50.4493 100.944 9.07792 -2.30841 75.3391 7.85272 0.310765 4.55013 -26.9199 -3.53827 86.5381 -5.01697 58.3727 -6.05331 6.87759 8.78446 -0.83272 -6.82537 -26.9274 11.7624 -32.9548 -1.63977 93.0909 161.827 73.9257 -151.656 -5.43155 -1.93697 0.875267 7.5169 -11.6429 -12.6188 
220.633 98.2861 -240.875 70.3086 38.5297 11.112 -70.1915 0 88.8779 137.455 65.4745 -52.6785 10.9136 24.0829 -5.55383 -160.969 18.5294 172.821 -150.167 54.7789 161.984 2.37505 -2.38901 -28.8622 -100.625 46.0553 -69.4995 -1.25372 30.4503 -8.87803 6.33011 -0.467885 -6.46859 0.164968 0.134122 25.013 -80.2039 -50.8211 101.681 13.9544 -2.2356 82.4949 7.88266 0.298089 4.3303 -26.1363 -2.60871 82.0506 -3.05756 45.5415 -8.46411 3.47149 7.75582 -0.209554 -3.65159 -2.542 14.0888 -33.7335 1.16152 91.1086 142.21 82.5903 -129.936 -5.63586 -2.2081 0.902779 8.66184 -13.177 -15.6194 
214.322 100.215 -232.771 66.9526 39.7786 13.6644 -70.1915 0 88.8779 137.559 64.8891 -53.1211 10.3322 23.8945 -4.86759 -161.705 19.9277 174.288 -149.086 56.5921 165.312 2.26546 -3.11344 -29.0663 -97.6541 47.9493 -73.0785 -0.536972 23.0005 -11.086 4.55294 -0.310899 -5.78197 0.198177 -0.126015 24.6034 -76.3535 -50.487 105.754 18.0886 -3.07402 81.4331 8.39018 0.378978 5.21288 -24.2538 -2.03117 82.8489 -1.65444 36.8705 -12.8953 -2.70828 10.3678 1.19406 -4.39539 -0.475431 18.4495 -31.9164 2.29448 90.3027 41.3371 84.2803 -31.3542 -4.46788 -5.33337 0.884324 6.19213 -1.85115 -15.5501 
209.039 99.5533 -225.885 64.9443 43.7996 17.8312 -70.1915 0 88.8779 137.337 63.6917 -51.3478 10.1987 22.0835 -2.23316 -162.031 21.0009 175.588 -150.311 58.2724 167.826 2.16355 -3.81627 -29.3879 -86.862 48.9592 -86.3899 0.41734 17.0108 -13.8739 9.93265 -0.733659 -6.53946 0.233404 -0.429275 25.1447 -73.99 -48.7029 106.975 18.1279 -4.58001 75.8713 7.96452 0.354394 5.15415 -19.7904 -2.24461 82.7208 -4.101 50.2912 -12.5428 -0.693077 7.8187 0.574864 -4.81672 -2.75123 19.5717 -31.992 2.40283 85.7546 14.7233 76.9837 -5.25421 -6.62308 -4.66005 1.038 5.91134 2.12814 -16.9664 
203.682 96.7739 -219.658 67.3982 49.8432 20.4868 -70.1915 0 88.8779 141.217 60.5605 -51.4141 10.13 19.7724 0.966569 -161.221 22.3985 175.54 -149.163 59.6577 167.967 2.28122 -3.28853 -29.7998 -69.5157 44.8063 -107.674 1.60432 6.93568 -17.8277 9.75652 -0.695583 -6.2547 0.188349 -0.0793043 25.6331 -74.5302 -48.6596 103.62 16.6608 -6.49603 67.021 7.74863 0.253073 3.6965 -18.675 -2.76944 81.0714 -11.4556 72.4901 -2.39736 0.589698 8.35326 0.368856 -5.8063 -15.8013 19.4789 -33.8982 2.80055 80.8116 11.5534 73.6954 -0.872739 -8.69019 -2.30929 1.2161 8.66077 -14.7527 -14.1133 
197.875 93.687 -212.946 72.7748 53.6042 17.5152 -70.1915 0 88.8779 143.419 58.6943 -51.9208 10.9573 19.3951 0.737566 -159.169 23.2132 173.836 -148.133 60.2996 167.191 2.22392 -3.24368 -28.7593 -64.1156 38.9703 -119.902 3.18476 2.50326 -22.5096 10.3006 -0.728069 -6.19308 0.199236 -0.208575 27.4539 -76.5213 -49.6913 98.4629 11.7797 -7.0473 53.3874 7.06254 0.132443 1.98624 -21.2729 -1.30366 81.9138 -131.444 84.3869 123.362 2.74812 6.83949 -0.117841 -6.08605 -20.3612 17.6916 -32.0587 1.02752 78.67 14.457 76.3319 -4.21078 -8.37266 -8.10763 1.17571 7.84473 -8.28227 -16.5247 
